<svg width="86" height="20" viewBox="0 0 86 20" fill="none" xmlns="http://www.w3.org/2000/svg">
<path d="M14.136 17V10.808H10.122V17H6.999V5.633L6.72 3.554L10.122 3.266V8.756H14.136V3.536L17.25 3.257V17H14.136ZM24.0395 17.153C23.3195 17.153 22.6625 17.024 22.0685 16.766C21.4745 16.502 20.9615 16.142 20.5295 15.686C20.1035 15.224 19.7705 14.681 19.5305 14.057C19.2965 13.433 19.1795 12.755 19.1795 12.023C19.1795 11.297 19.2935 10.625 19.5215 10.007C19.7495 9.383 20.0735 8.846 20.4935 8.396C20.9195 7.94 21.4295 7.586 22.0235 7.334C22.6235 7.076 23.2955 6.947 24.0395 6.947C24.7595 6.947 25.4165 7.076 26.0105 7.334C26.6105 7.586 27.1235 7.94 27.5495 8.396C27.9815 8.846 28.3145 9.383 28.5485 10.007C28.7885 10.625 28.9085 11.297 28.9085 12.023C28.9085 12.755 28.7945 13.433 28.5665 14.057C28.3385 14.681 28.0115 15.224 27.5855 15.686C27.1655 16.142 26.6555 16.502 26.0555 16.766C25.4555 17.024 24.7835 17.153 24.0395 17.153ZM25.9745 12.248C25.9745 11.84 25.9385 11.438 25.8665 11.042C25.7945 10.646 25.6775 10.292 25.5155 9.98C25.3595 9.662 25.1555 9.407 24.9035 9.215C24.6575 9.023 24.3575 8.927 24.0035 8.927C23.6735 8.927 23.3885 9.011 23.1485 9.179C22.9085 9.341 22.7105 9.56 22.5545 9.836C22.4045 10.112 22.2935 10.427 22.2215 10.781C22.1495 11.129 22.1135 11.489 22.1135 11.861C22.1135 12.275 22.1495 12.68 22.2215 13.076C22.2935 13.472 22.4075 13.826 22.5635 14.138C22.7255 14.444 22.9295 14.693 23.1755 14.885C23.4215 15.077 23.7185 15.173 24.0665 15.173C24.3965 15.173 24.6815 15.092 24.9215 14.93C25.1615 14.762 25.3595 14.54 25.5155 14.264C25.6715 13.988 25.7855 13.676 25.8575 13.328C25.9355 12.98 25.9745 12.62 25.9745 12.248ZM33.5005 17H30.5665V7.163L33.5005 6.866V8.567L34.3105 7.208C34.5025 7.142 34.6975 7.082 34.8955 7.028C35.0995 6.974 35.3065 6.947 35.5165 6.947C35.7745 6.947 36.0325 6.968 36.2905 7.01C36.5545 7.052 36.8005 7.109 37.0285 7.181C37.2625 7.253 37.4755 7.343 37.6675 7.451C37.8655 7.553 38.0275 7.667 38.1535 7.793C38.2915 7.697 38.4505 7.598 38.6305 7.496C38.8165 7.394 39.0205 7.304 39.2425 7.226C39.4705 7.142 39.7135 7.076 39.9715 7.028C40.2295 6.974 40.5025 6.947 40.7905 6.947C41.3365 6.947 41.8255 7.028 42.2575 7.19C42.6955 7.352 43.0645 7.583 43.3645 7.883C43.6705 8.177 43.9045 8.537 44.0665 8.963C44.2285 9.383 44.3095 9.854 44.3095 10.376V17H41.3755V10.187C41.3755 9.941 41.3455 9.737 41.2855 9.575C41.2255 9.407 41.1445 9.275 41.0425 9.179C40.9465 9.077 40.8355 9.005 40.7095 8.963C40.5895 8.921 40.4635 8.9 40.3315 8.9C40.2475 8.9 40.1485 8.921 40.0345 8.963C39.9205 8.999 39.7975 9.053 39.6655 9.125C39.5335 9.191 39.3985 9.272 39.2605 9.368C39.1225 9.458 38.9935 9.56 38.8735 9.674C38.8855 9.818 38.8915 9.944 38.8915 10.052C38.8975 10.154 38.9005 10.289 38.9005 10.457V17H35.9665V10.187C35.9665 9.941 35.9425 9.737 35.8945 9.575C35.8525 9.407 35.7925 9.275 35.7145 9.179C35.6365 9.077 35.5405 9.005 35.4265 8.963C35.3185 8.921 35.1985 8.9 35.0665 8.9C34.9645 8.9 34.8475 8.918 34.7155 8.954C34.5895 8.99 34.4575 9.041 34.3195 9.107C34.1815 9.167 34.0405 9.245 33.8965 9.341C33.7585 9.437 33.6265 9.542 33.5005 9.656V17ZM54.6215 15.578C54.3995 15.806 54.1595 16.016 53.9015 16.208C53.6435 16.4 53.3585 16.565 53.0465 16.703C52.7345 16.841 52.3925 16.949 52.0205 17.027C51.6485 17.105 51.2375 17.144 50.7875 17.144C49.9235 17.144 49.1855 17.003 48.5735 16.721C47.9615 16.439 47.4605 16.064 47.0705 15.596C46.6865 15.122 46.4045 14.579 46.2245 13.967C46.0505 13.355 45.9635 12.716 45.9635 12.05C45.9635 11.624 46.0055 11.204 46.0895 10.79C46.1735 10.37 46.2995 9.974 46.4675 9.602C46.6415 9.224 46.8545 8.873 47.1065 8.549C47.3645 8.225 47.6645 7.946 48.0065 7.712C48.3485 7.478 48.7325 7.295 49.1585 7.163C49.5905 7.025 50.0645 6.956 50.5805 6.956C51.3005 6.956 51.9245 7.064 52.4525 7.28C52.9805 7.49 53.4155 7.787 53.7575 8.171C54.0995 8.549 54.3545 9.005 54.5225 9.539C54.6905 10.073 54.7745 10.664 54.7745 11.312C54.7745 11.474 54.7625 11.687 54.7385 11.951C54.7205 12.215 54.6965 12.5 54.6665 12.806H48.6365C48.6485 13.13 48.7175 13.439 48.8435 13.733C48.9695 14.021 49.1345 14.273 49.3385 14.489C49.5485 14.705 49.7915 14.879 50.0675 15.011C50.3435 15.137 50.6435 15.2 50.9675 15.2C51.2315 15.2 51.4805 15.17 51.7145 15.11C51.9545 15.05 52.1705 14.978 52.3625 14.894C52.5605 14.804 52.7345 14.714 52.8845 14.624C53.0345 14.528 53.1515 14.444 53.2355 14.372L54.6215 15.578ZM52.2185 10.952C52.2185 10.676 52.1975 10.415 52.1555 10.169C52.1135 9.923 52.0355 9.707 51.9215 9.521C51.8075 9.329 51.6515 9.179 51.4535 9.071C51.2615 8.957 51.0125 8.9 50.7065 8.9C50.4485 8.9 50.2205 8.945 50.0225 9.035C49.8305 9.125 49.6625 9.239 49.5185 9.377C49.3805 9.509 49.2665 9.65 49.1765 9.8C49.0865 9.95 49.0175 10.082 48.9695 10.196L48.1505 11.123L49.7075 10.961L52.2185 10.952ZM56.094 15.461C56.094 15.233 56.136 15.02 56.22 14.822C56.31 14.618 56.43 14.441 56.58 14.291C56.73 14.135 56.904 14.015 57.102 13.931C57.306 13.841 57.522 13.796 57.75 13.796C57.978 13.796 58.194 13.841 58.398 13.931C58.602 14.015 58.779 14.135 58.929 14.291C59.079 14.441 59.196 14.618 59.28 14.822C59.37 15.02 59.415 15.233 59.415 15.461C59.415 15.695 59.37 15.914 59.28 16.118C59.196 16.322 59.079 16.502 58.929 16.658C58.785 16.808 58.611 16.928 58.407 17.018C58.209 17.108 57.996 17.153 57.768 17.153C57.54 17.153 57.321 17.108 57.111 17.018C56.907 16.928 56.73 16.808 56.58 16.658C56.43 16.502 56.31 16.322 56.22 16.118C56.136 15.914 56.094 15.695 56.094 15.461ZM64.8745 17H62.0305V7.559L64.8745 7.271V17ZM61.9765 3.5H64.9285V5.579H61.9765V3.5ZM70.397 6.866V8.567L71.207 7.208C71.399 7.142 71.594 7.082 71.792 7.028C71.996 6.974 72.203 6.947 72.413 6.947C72.671 6.947 72.92 6.956 73.16 6.974C73.406 6.986 73.64 7.022 73.862 7.082C74.084 7.136 74.294 7.22 74.492 7.334C74.69 7.442 74.876 7.592 75.05 7.784C75.236 7.988 75.38 8.21 75.482 8.45C75.584 8.69 75.656 8.93 75.698 9.17C75.746 9.404 75.773 9.635 75.779 9.863C75.791 10.085 75.797 10.283 75.797 10.457V17H72.863V10.187C72.863 9.941 72.839 9.737 72.791 9.575C72.749 9.407 72.689 9.275 72.611 9.179C72.533 9.077 72.437 9.005 72.323 8.963C72.215 8.921 72.095 8.9 71.963 8.9C71.861 8.9 71.744 8.918 71.612 8.954C71.486 8.99 71.354 9.041 71.216 9.107C71.078 9.167 70.937 9.245 70.793 9.341C70.655 9.437 70.523 9.542 70.397 9.656V17H67.463V7.163L70.397 6.866Z" fill="black"/>
</svg>
